<?xml version="1.0" standalone="no"?>
<!DOCTYPE svg PUBLIC "-//W3C//DTD SVG 20010904//EN"
 "http://www.w3.org/TR/2001/REC-SVG-20010904/DTD/svg10.dtd">
<svg version="1.0" xmlns="http://www.w3.org/2000/svg"
 width="1766.000000pt" height="1766.000000pt" viewBox="0 0 1766.000000 1766.000000"
 preserveAspectRatio="xMidYMid meet">
<metadata>
Created by potrace 1.11, written by Peter Selinger 2001-2013
</metadata>
<g transform="translate(0.000000,1766.000000) scale(0.100000,-0.100000)"
fill="#000000" stroke="none">
<path d="M7485 16218 l-1 -530 76 5 c211 17 421 86 578 191 175 117 272 276
274 451 1 112 -43 195 -140 263 -140 98 -320 141 -622 147 l-165 4 0 -531z
m282 411 c101 -3 243 -35 318 -70 118 -57 176 -137 177 -247 4 -235 -265 -447
-617 -486 -20 -3 -20 3 -20 404 l0 406 35 -2 c19 -1 68 -3 107 -5z"/>
<path d="M8737 16668 c-28 -57 -118 -222 -133 -245 -13 -20 -12 -23 6 -33 17
-9 22 -5 44 39 28 54 34 57 121 56 l60 0 28 -53 c25 -46 31 -51 48 -42 16 9
17 14 8 33 -25 46 -151 262 -158 270 -4 4 -15 -7 -24 -25z m48 -91 c15 -27 25
-51 22 -53 -6 -6 -107 -15 -107 -9 0 7 54 115 56 112 1 -1 14 -24 29 -50z"/>
<path d="M9319 16658 c-20 -41 -43 -83 -110 -205 -29 -52 -29 -52 -9 -63 19
-10 23 -7 43 39 15 37 27 51 41 52 12 1 45 3 75 4 45 3 56 1 72 -18 10 -12 19
-26 19 -32 0 -5 8 -20 18 -32 14 -18 20 -20 33 -10 15 11 8 28 -68 157 -46 80
-86 146 -88 148 -2 2 -13 -16 -26 -40z m56 -85 c11 -21 24 -41 30 -45 11 -8 7
-9 -67 -13 -27 -2 -48 -2 -48 0 0 8 34 82 42 92 13 17 19 12 43 -34z"/>
<path d="M8927 16682 c-9 -2 -17 -10 -17 -18 0 -14 17 -17 83 -14 42 2 39 14
38 -154 0 -54 2 -102 4 -106 3 -5 14 -6 24 -3 18 4 19 15 18 131 l-2 127 63 0
c55 0 62 2 62 20 0 19 -7 20 -128 20 -71 0 -136 -1 -145 -3z"/>
<path d="M7762 15433 c-16 -3 -22 -9 -18 -20 6 -14 -1 -63 -20 -163 -3 -14 -7
-38 -9 -55 -3 -16 -7 -41 -10 -55 -8 -37 -13 -63 -19 -106 -4 -22 -13 -73 -21
-114 -20 -102 -25 -130 -30 -165 -3 -16 -9 -52 -15 -80 -5 -27 -11 -61 -14
-75 -6 -39 -25 -142 -31 -175 -11 -55 -27 -150 -30 -165 -1 -8 -5 -28 -8 -45
-4 -16 -9 -46 -12 -65 -3 -19 -12 -69 -20 -110 -8 -41 -17 -91 -20 -110 -3
-19 -12 -69 -20 -110 -8 -41 -17 -91 -20 -110 -3 -19 -8 -46 -10 -60 -3 -14
-7 -36 -10 -50 -3 -14 -7 -36 -10 -50 -2 -14 -7 -41 -10 -60 -3 -19 -12 -69
-20 -110 -15 -80 -22 -114 -31 -169 -3 -18 -7 -41 -9 -50 -1 -9 -13 -69 -25
-133 -13 -67 -27 -118 -34 -119 -6 0 -20 -2 -31 -4 -11 -2 -42 -7 -69 -10 -27
-4 -58 -9 -70 -11 -23 -5 -58 -11 -108 -20 -18 -3 -53 -10 -78 -15 -43 -10
-54 -13 -106 -23 -128 -26 -500 -149 -649 -215 -315 -141 -666 -350 -890 -532
-244 -198 -461 -413 -631 -625 -65 -82 -128 -163 -140 -179 -11 -17 -41 -60
-66 -96 -75 -108 -191 -305 -257 -436 -34 -68 -60 -124 -59 -126 2 -2 -4 -14
-13 -27 -54 -84 -217 -553 -253 -730 -3 -14 -10 -43 -15 -65 -6 -22 -13 -56
-16 -75 -3 -19 -12 -71 -20 -115 -19 -104 -23 -134 -24 -166 -1 -25 -6 -27
-83 -42 -46 -9 -101 -19 -123 -23 -22 -3 -85 -14 -140 -25 -55 -10 -118 -21
-140 -24 -22 -4 -56 -10 -75 -15 -19 -5 -53 -11 -75 -15 -40 -6 -73 -11 -110
-19 -11 -2 -87 -16 -170 -30 -82 -15 -184 -34 -225 -41 -93 -18 -125 -24 -170
-31 -19 -3 -66 -11 -105 -19 -38 -7 -86 -16 -105 -19 -19 -3 -46 -8 -60 -11
-14 -3 -38 -8 -55 -10 -16 -3 -37 -8 -45 -10 -8 -2 -33 -6 -55 -9 -22 -4 -62
-11 -90 -16 -27 -5 -61 -11 -75 -14 -14 -2 -63 -11 -110 -20 -47 -8 -96 -17
-110 -20 -14 -2 -63 -11 -110 -20 -139 -25 -144 -26 -180 -32 -19 -3 -53 -9
-75 -13 -30 -5 -41 -12 -43 -28 -3 -18 2 -21 45 -21 26 -1 59 -3 73 -7 14 -3
39 -8 55 -10 17 -3 64 -12 105 -20 41 -8 93 -17 115 -21 22 -3 56 -9 75 -14
19 -5 52 -11 73 -14 20 -3 54 -9 75 -12 20 -3 44 -7 52 -9 8 -2 31 -7 50 -10
19 -3 91 -16 160 -30 69 -13 145 -27 170 -30 24 -4 99 -17 166 -30 66 -13 143
-27 170 -31 27 -3 52 -8 55 -10 4 -2 24 -6 45 -10 22 -3 100 -17 174 -30 140
-26 206 -38 300 -54 30 -6 66 -12 80 -15 14 -3 41 -8 60 -11 19 -4 44 -8 55
-10 11 -2 58 -11 105 -19 47 -8 95 -17 106 -19 12 -2 37 -7 55 -10 109 -18
104 -14 114 -95 11 -95 16 -123 37 -226 11 -55 22 -111 24 -125 3 -14 16 -68
30 -120 93 -346 221 -663 392 -965 40 -72 217 -348 242 -378 5 -6 49 -62 97
-123 421 -535 961 -947 1593 -1217 159 -67 445 -164 542 -182 12 -3 35 -9 52
-14 25 -8 94 -23 206 -46 8 -1 60 -10 115 -19 55 -9 111 -18 125 -20 14 -3 27
-5 30 -5 3 -1 6 -9 7 -18 1 -15 23 -136 39 -218 2 -11 11 -58 19 -105 8 -47
17 -96 20 -110 4 -22 26 -142 40 -225 3 -16 10 -52 15 -80 17 -87 20 -107 40
-218 11 -60 21 -116 24 -125 3 -9 7 -35 11 -57 7 -51 24 -147 40 -225 3 -14 8
-41 11 -60 3 -19 14 -80 24 -135 10 -55 21 -118 24 -140 3 -22 8 -51 11 -65 9
-43 28 -145 40 -215 9 -46 37 -198 41 -220 2 -11 7 -33 9 -50 10 -57 27 -150
29 -160 2 -5 6 -31 10 -56 7 -39 11 -46 27 -42 14 4 19 14 19 37 0 17 6 65 14
106 8 41 17 95 21 120 4 24 8 47 10 50 2 3 6 23 9 45 5 35 42 240 62 345 3 19
8 44 9 55 2 11 17 94 34 185 17 91 32 176 35 190 2 14 11 63 20 110 8 47 17
96 20 110 2 14 14 77 25 140 12 63 28 151 36 195 8 44 17 91 19 105 2 14 11
63 20 110 8 47 17 96 20 110 2 14 11 63 20 110 8 47 18 101 21 120 3 19 8 42
10 50 2 8 7 33 10 55 4 22 8 47 10 55 2 8 6 39 10 68 4 28 12 52 19 53 6 0 20
2 31 4 11 2 42 7 69 10 27 4 58 9 70 11 12 2 62 11 111 20 312 54 702 185
1015 340 536 266 963 608 1368 1100 178 216 401 584 530 874 98 220 228 626
257 801 3 19 10 57 15 84 5 28 12 64 14 80 3 17 10 59 15 95 6 36 11 68 11 72
0 7 61 21 161 37 35 6 75 13 89 16 30 6 245 45 280 51 14 3 48 9 75 14 28 5
64 12 80 15 51 8 244 44 280 51 11 2 47 9 80 14 33 5 69 12 80 14 46 9 193 36
225 41 19 3 55 9 80 14 25 5 72 14 105 20 33 6 96 17 140 26 44 8 91 16 105
19 27 4 92 16 125 22 11 3 58 11 105 19 88 16 116 21 160 30 14 2 39 7 55 10
17 3 41 7 55 10 23 5 92 17 165 30 87 15 88 15 80 38 -4 9 -19 15 -38 15 -18
0 -180 27 -362 61 -181 33 -346 63 -365 66 -19 3 -42 8 -50 10 -8 2 -33 6 -55
10 -35 5 -64 9 -128 21 -10 2 -26 5 -35 8 -9 3 -35 7 -57 11 -35 5 -154 26
-225 40 -14 3 -77 14 -140 25 -63 12 -126 23 -140 25 -37 7 -188 35 -245 45
-27 5 -75 14 -105 19 -30 6 -68 13 -85 16 -16 3 -43 8 -60 11 -16 3 -50 9 -75
14 -25 4 -116 20 -202 36 l-157 28 -6 61 c-11 101 -52 313 -89 458 -232 920
-780 1722 -1560 2280 -90 65 -293 197 -301 197 -2 0 -28 14 -57 31 -84 50
-297 154 -425 208 -199 83 -544 191 -692 216 -19 3 -37 8 -40 10 -4 2 -25 6
-47 9 -22 4 -51 9 -64 11 -14 3 -57 10 -97 16 -83 12 -115 17 -119 21 -1 2
-10 44 -18 93 -9 50 -18 101 -21 115 -3 14 -7 39 -10 55 -3 17 -7 41 -10 55
-3 14 -7 41 -10 60 -3 19 -12 69 -20 110 -14 71 -48 259 -80 435 -19 105 -29
159 -30 165 -1 3 -5 28 -9 55 -4 28 -12 66 -16 85 -5 19 -11 51 -14 70 -3 19
-8 46 -10 60 -3 14 -12 63 -20 110 -8 47 -17 96 -20 110 -3 14 -10 52 -15 85
-6 33 -13 71 -16 85 -11 53 -27 146 -32 175 -2 17 -15 86 -28 155 -14 69 -27
141 -30 160 -7 47 -24 139 -30 170 -9 45 -18 95 -18 108 0 6 -1 11 -1 11 -1
-1 -11 -4 -24 -6z m-662 -3620 c-5 -21 -11 -56 -14 -78 -4 -22 -13 -74 -21
-115 -8 -41 -17 -91 -20 -110 -3 -19 -12 -66 -20 -105 -7 -38 -17 -90 -20
-115 -3 -25 -13 -76 -20 -115 -8 -38 -17 -86 -20 -105 -3 -19 -10 -55 -15 -80
-5 -25 -19 -97 -29 -160 -11 -63 -25 -140 -31 -170 -6 -30 -13 -70 -16 -89 -3
-18 -7 -41 -9 -50 -1 -9 -6 -35 -10 -58 -4 -24 -10 -43 -15 -43 -4 0 -84 37
-176 81 -93 45 -209 101 -259 124 -49 23 -151 72 -225 108 -362 173 -413 197
-416 195 -1 -2 11 -32 28 -68 65 -139 109 -231 176 -370 160 -333 206 -429
239 -500 20 -41 41 -87 49 -101 l13 -27 -97 -17 c-53 -10 -106 -19 -117 -21
-11 -2 -33 -7 -50 -9 -30 -6 -185 -34 -216 -40 -9 -2 -34 -6 -55 -9 -22 -3
-50 -8 -64 -11 -46 -10 -75 -15 -105 -20 -59 -11 -140 -25 -160 -29 -30 -6
-185 -34 -220 -41 -16 -2 -40 -7 -51 -9 -12 -2 -39 -7 -60 -10 -42 -7 -127
-23 -186 -36 -44 -9 -47 -2 -25 71 8 24 14 46 14 49 1 15 61 197 88 270 167
437 467 870 810 1169 33 29 69 61 80 70 16 14 129 100 210 159 226 166 630
350 955 436 87 23 89 22 80 -21z m1449 7 c75 -19 265 -81 306 -100 11 -5 49
-21 85 -36 224 -91 498 -257 710 -428 83 -68 76 -61 186 -167 363 -349 623
-765 779 -1244 38 -120 69 -244 62 -251 -2 -3 -42 2 -88 10 -46 9 -97 18 -114
21 -37 6 -131 23 -165 30 -14 3 -41 8 -60 11 -36 6 -332 60 -385 70 -16 3 -43
8 -60 10 -16 3 -64 11 -105 19 -41 8 -88 17 -105 20 -72 13 -195 35 -249 45
-32 6 -67 12 -77 13 -25 2 -24 2 75 210 46 95 105 217 131 272 172 359 210
439 249 518 24 48 39 87 35 87 -9 0 -88 -37 -354 -165 -88 -43 -196 -94 -240
-115 -44 -21 -159 -76 -256 -123 -96 -46 -184 -87 -196 -91 -18 -6 -21 0 -33
71 -7 43 -16 94 -20 113 -5 19 -11 51 -14 70 -3 19 -8 46 -10 60 -3 14 -12 63
-20 110 -8 47 -18 99 -21 115 -3 17 -10 55 -15 85 -6 30 -12 66 -15 80 -11 54
-27 146 -32 175 -2 17 -13 75 -23 130 -11 55 -22 116 -26 135 -3 19 -12 71
-20 115 -28 152 -28 159 -9 152 9 -4 52 -16 94 -27z m-3574 -3569 c33 -6 71
-13 85 -16 45 -9 184 -34 220 -40 19 -3 58 -10 85 -15 43 -9 333 -62 405 -74
14 -2 36 -7 50 -10 14 -3 39 -8 55 -10 42 -7 145 -25 175 -31 14 -3 65 -12
115 -21 49 -8 94 -18 101 -22 8 -5 -4 -39 -40 -112 -28 -58 -80 -166 -115
-240 -62 -130 -186 -387 -295 -615 -30 -60 -50 -111 -46 -113 4 -1 87 36 186
84 185 89 293 141 549 264 83 40 188 90 233 113 86 41 100 41 103 -3 0 -8 3
-26 5 -40 8 -43 36 -194 40 -215 2 -11 7 -33 9 -50 12 -66 25 -141 30 -165 8
-43 24 -133 31 -174 3 -21 8 -48 10 -60 5 -23 29 -149 39 -206 3 -19 12 -71
21 -115 8 -44 24 -132 35 -195 11 -63 23 -125 25 -137 5 -19 3 -21 -20 -17
-14 2 -36 8 -48 13 -13 5 -25 8 -28 8 -15 -1 -203 61 -315 105 -578 225 -1083
634 -1417 1148 -85 131 -92 144 -177 315 -94 189 -190 441 -216 565 -2 8 -8
35 -13 59 l-10 43 36 -5 c20 -3 64 -11 97 -16z m5700 -21 c-3 -10 -8 -28 -10
-40 -13 -66 -92 -307 -130 -395 -45 -106 -102 -224 -118 -247 -10 -16 -16 -28
-13 -28 3 0 -10 -25 -29 -55 -19 -30 -35 -57 -35 -60 0 -9 -134 -208 -189
-280 -134 -177 -336 -386 -496 -514 -49 -40 -99 -80 -110 -89 -122 -99 -490
-304 -677 -376 -75 -29 -271 -96 -297 -101 -9 -2 -45 -10 -80 -20 -35 -9 -65
-14 -67 -12 -2 2 3 37 10 78 8 41 17 92 20 114 3 22 8 51 11 65 10 45 15 75
20 105 3 17 14 77 25 135 11 58 22 121 25 140 3 19 8 42 10 50 2 8 7 31 9 50
5 33 11 65 21 120 10 47 13 67 19 106 4 22 8 46 11 54 2 8 6 33 10 55 3 22 7
47 10 55 2 8 6 33 10 54 3 21 7 48 10 60 3 12 7 32 9 46 2 14 9 53 16 86 l12
61 82 -39 c44 -22 122 -60 171 -83 50 -24 146 -70 215 -103 69 -33 177 -84
240 -115 63 -30 173 -82 244 -116 70 -34 129 -61 131 -59 1 2 -17 44 -41 93
-42 87 -86 179 -249 520 -43 88 -97 203 -122 255 -24 52 -55 116 -69 141 -13
26 -24 49 -24 52 0 3 12 8 28 11 46 9 86 17 116 21 15 2 35 6 45 9 9 3 34 8
56 11 23 3 52 8 65 11 14 3 39 7 55 9 17 3 53 9 80 15 28 5 64 12 80 15 28 5
46 8 105 20 14 2 41 7 60 10 19 3 46 8 60 10 59 12 78 16 135 25 33 5 69 12
80 14 24 5 177 33 220 41 17 2 73 13 125 23 52 10 99 17 103 14 4 -2 5 -12 2
-22z"/>
<path d="M2447 9679 c-135 -244 -130 -232 -110 -247 16 -11 20 -8 43 40 l25
53 77 3 76 4 28 -51 c27 -50 50 -64 60 -37 3 7 -33 78 -79 156 l-85 142 -35
-63z m88 -117 c-7 -7 -105 -7 -105 0 0 5 12 32 26 60 l27 52 27 -54 c16 -30
27 -56 25 -58z"/>
<path d="M1250 9580 c0 -149 0 -150 23 -150 22 0 22 1 22 150 0 149 0 150 -22
150 -23 0 -23 -1 -23 -150z"/>
<path d="M1429 9729 c-1 -2 -2 -70 -3 -151 -2 -148 -1 -148 21 -148 23 0 23 2
22 108 -2 165 -3 160 25 157 43 -5 65 -16 71 -35 8 -25 -9 -56 -41 -73 l-25
-13 57 -72 c53 -67 81 -85 91 -56 2 5 -19 35 -46 65 -49 53 -50 54 -30 71 28
24 48 66 42 89 -8 28 -54 49 -123 56 -33 3 -61 4 -61 2z"/>
<path d="M1670 9722 c-5 -2 -10 -10 -10 -19 0 -11 11 -14 43 -13 92 4 84 16
82 -130 -2 -130 -2 -130 22 -130 23 0 23 1 23 130 0 145 -7 134 78 130 35 -1
42 2 42 17 0 17 -11 18 -135 18 -74 0 -139 -1 -145 -3z"/>
<path d="M1998 9718 c-12 -32 0 -196 16 -227 25 -47 67 -69 126 -66 96 6 130
59 134 208 3 94 2 97 -19 97 -22 0 -23 -4 -23 -93 -1 -106 -10 -136 -47 -165
-24 -19 -48 -21 -97 -6 -31 9 -51 72 -52 168 -1 75 -4 91 -17 94 -9 2 -19 -3
-21 -10z"/>
<path d="M2731 9578 l1 -148 39 -1 c22 0 56 -1 77 -1 30 -1 37 2 37 17 0 16
-8 19 -55 20 l-55 0 1 132 0 132 -23 -1 -23 -2 1 -148z"/>
<path d="M16225 9716 c-67 -29 -103 -93 -97 -169 6 -76 71 -126 158 -122 86 4
143 47 163 123 20 72 -9 136 -76 171 -29 15 -111 13 -148 -3z m144 -44 c26
-21 34 -37 38 -73 7 -62 -16 -105 -69 -129 -95 -42 -179 19 -165 121 13 97
123 142 196 81z"/>
<path d="M16549 9726 c0 -3 0 -62 0 -131 0 -69 0 -134 0 -145 1 -13 8 -20 21
-20 19 0 20 7 20 134 l0 133 41 -7 c22 -4 45 -12 51 -18 18 -18 4 -56 -28 -77
l-31 -21 56 -72 c57 -73 70 -82 90 -59 8 10 1 23 -30 53 -60 58 -65 71 -36 94
46 37 41 101 -10 121 -30 11 -143 23 -144 15z"/>
<path d="M16859 9728 c-1 -2 -2 -69 -3 -150 l-2 -148 25 -1 c14 0 50 -1 79 -2
47 -2 52 0 52 20 0 20 -4 21 -55 17 l-55 -5 -1 48 c0 26 0 87 0 136 2 81 1 87
-19 87 -11 0 -20 -1 -21 -2z"/>
<path d="M17099 9728 c0 -2 -1 -69 -2 -151 l-2 -147 36 0 c87 0 183 49 218
111 41 72 20 134 -55 165 -29 12 -193 30 -195 22z m178 -56 c97 -50 28 -188
-102 -203 l-30 -4 -3 116 -3 116 53 -4 c29 -2 68 -12 85 -21z"/>
<path d="M17505 9713 c-74 -40 -84 -92 -25 -129 19 -12 46 -32 58 -44 23 -20
23 -22 6 -41 -9 -10 -35 -24 -56 -31 -27 -8 -37 -16 -33 -26 3 -7 5 -15 5 -17
0 -12 89 30 112 52 47 45 31 87 -49 127 -37 19 -45 29 -37 49 5 14 57 42 79
42 6 0 10 7 10 15 0 21 -34 23 -70 3z"/>
<path d="M165 9488 c-11 -6 -39 -21 -61 -34 l-42 -24 91 -182 c49 -101 111
-228 137 -283 26 -55 93 -193 148 -306 55 -113 103 -215 106 -226 4 -11 15
-28 24 -36 17 -16 21 -12 60 66 23 45 66 127 95 182 29 55 82 154 116 220 35
66 76 143 91 170 15 28 49 91 75 140 27 50 68 125 92 167 23 43 43 81 43 86 0
7 -71 52 -111 70 -4 2 -97 -178 -208 -398 -111 -221 -207 -411 -215 -421 -12
-18 -18 -10 -74 103 -105 215 -257 536 -307 650 -17 37 -32 67 -35 67 -3 0
-14 -5 -25 -11z"/>
<path d="M14630 9489 c-8 -5 -36 -18 -62 -29 l-47 -20 15 -43 c9 -23 58 -166
111 -317 144 -419 169 -490 193 -555 12 -33 24 -71 27 -85 3 -14 12 -33 19
-43 11 -17 14 -15 37 25 37 62 288 514 317 570 13 26 27 45 31 42 4 -2 33 -50
65 -106 33 -56 70 -120 84 -143 14 -23 66 -112 115 -198 50 -86 92 -157 95
-157 3 0 34 69 69 153 35 83 72 170 81 192 98 222 269 650 263 655 -10 9 -115
51 -118 48 -5 -5 -180 -460 -262 -680 -21 -54 -39 -98 -42 -98 -4 0 -82 133
-175 295 -146 255 -171 293 -181 278 -7 -10 -26 -43 -42 -73 -17 -30 -80 -145
-141 -255 -60 -110 -120 -220 -133 -245 -19 -35 -24 -41 -27 -25 -5 23 -108
340 -122 370 -4 11 -38 115 -75 230 -37 116 -70 213 -74 216 -3 4 -13 3 -21
-2z"/>
<path d="M7838 2034 c-18 -30 -56 -100 -143 -269 -54 -104 -124 -239 -155
-300 -32 -60 -92 -177 -135 -260 -43 -82 -84 -159 -92 -170 -21 -31 -15 -52
20 -73 19 -11 45 -27 59 -36 l25 -16 77 172 c42 95 80 179 84 185 8 13 53 16
404 28 83 3 119 1 126 -8 5 -7 39 -70 77 -142 37 -71 81 -153 96 -182 l29 -51
60 40 c33 22 60 43 60 48 0 4 -29 58 -65 119 -36 62 -80 140 -98 174 -19 34
-58 107 -89 162 -30 55 -72 132 -93 170 -68 125 -213 379 -228 399 -8 10 -16
15 -19 10z m77 -369 c89 -170 125 -237 138 -252 7 -10 2 -13 -19 -14 -16 0
-51 -2 -79 -5 -80 -5 -315 -12 -315 -8 0 9 201 416 204 413 1 -2 34 -62 71
-134z"/>
<path d="M8329 1975 c-2 -46 -7 -143 -12 -220 -5 -67 -4 -71 17 -73 21 -1 22
3 23 63 1 36 2 88 2 116 l1 50 117 -115 c64 -64 118 -114 120 -113 1 2 5 69 8
149 5 130 4 146 -11 152 -9 4 -19 4 -22 2 -2 -3 -4 -53 -3 -111 0 -58 -2 -105
-6 -105 -4 0 -58 53 -120 117 -107 111 -113 116 -114 88z"/>
<path d="M8792 1918 c-130 -240 -124 -225 -100 -231 12 -4 22 -5 23 -4 0 1 11
23 24 50 20 41 26 47 54 48 18 0 49 2 71 3 43 2 57 -8 87 -65 17 -34 22 -38
39 -29 11 6 20 12 20 14 0 2 -36 64 -80 137 -44 74 -80 137 -80 141 0 25 -24
-1 -58 -64z m77 -51 c12 -21 21 -41 21 -45 0 -4 -25 -8 -55 -10 -30 -1 -55 0
-55 3 0 3 12 29 26 57 27 54 31 54 63 -5z"/>
<path d="M9100 1981 c-12 -5 -15 -31 -15 -148 0 -89 4 -143 10 -144 44 -6 132
-8 142 -4 7 2 10 11 7 20 -5 11 -19 15 -58 13 l-51 -3 -3 130 c-1 71 -6 133
-10 136 -4 4 -14 4 -22 0z"/>
<path d="M9494 1961 c-43 -31 -84 -80 -84 -102 0 -6 -14 8 -31 32 -35 48 -77
88 -95 89 -27 0 -21 -30 11 -54 57 -44 80 -91 81 -170 1 -64 3 -70 23 -71 19
-2 21 3 21 59 0 75 25 132 74 172 33 28 42 30 109 30 l72 -1 0 -128 c0 -70 2
-128 5 -128 46 -12 45 -13 45 125 l0 131 50 1 c72 2 75 3 69 18 -7 18 -294 21
-295 2 0 -6 -4 -3 -8 7 -6 16 -10 15 -47 -12z"/>
<path d="M9926 1981 c-18 -7 -20 -17 -18 -112 1 -57 1 -123 2 -146 0 -35 3
-42 20 -40 19 1 20 8 20 154 0 84 -1 153 -2 152 -2 0 -12 -4 -22 -8z"/>
<path d="M10203 1970 c-99 -32 -158 -95 -158 -166 0 -75 71 -123 183 -124 53
0 62 3 62 18 0 15 -8 17 -47 16 -86 -3 -153 35 -153 88 0 64 48 112 138 139
38 11 54 31 35 42 -5 3 -31 -3 -60 -13z"/>
<path d="M10425 1974 c-47 -26 -75 -55 -75 -81 0 -29 12 -42 68 -73 67 -38 52
-76 -41 -104 -10 -3 -17 -12 -14 -19 6 -17 55 -10 95 15 68 42 67 93 -2 133
-63 37 -74 52 -52 73 9 9 31 22 49 28 33 11 44 37 17 41 -8 1 -28 -5 -45 -13z"/>
</g>
</svg>
