<svg xmlns="http://www.w3.org/2000/svg" viewBox="0 0 384.56 393.88"><defs><style>.cls-1,.cls-3{fill:none;}.cls-1,.cls-2,.cls-4{stroke:#000;stroke-width:0.25px;}.cls-3{stroke:#fff;}.cls-4{fill:#fff;}.cls-5{font-size:36px;}.cls-5,.cls-6,.cls-7{font-family:LithosPro-Regular, Lithos Pro;}.cls-6{writing-mode:tb;text-orientation:upright;glyph-orientation-vertical:0deg;}.cls-6,.cls-7{font-size:12px;}.cls-8{letter-spacing:-0.06em;}.cls-9{letter-spacing:-0.05em;}.cls-10{letter-spacing:-0.03em;}.cls-11{letter-spacing:0.03em;}.cls-12{letter-spacing:-0.01em;}</style></defs><title>Asset 2</title><g id="Layer_2" data-name="Layer 2"><g id="Layer_1-2" data-name="Layer 1"><g id="layer1"><g id="ring"><path id="inner-line" class="cls-1" d="M257.35,193a72,72,0,1,1-72-72A72,72,0,0,1,257.35,193Z"/><path id="outer-line" class="cls-1" d="M281.35,193a96,96,0,1,1-96-96A96,96,0,0,1,281.35,193Z"/><path id="ring-fill" class="cls-2" d="M185.35,97a96,96,0,1,0,96,96A96,96,0,0,0,185.35,97Zm0,24a72,72,0,1,1-72,72A72,72,0,0,1,185.35,121Z"/></g><g id="major-rose-edge"><path id="highlight-north" class="cls-3" d="M185.35,193l24-24-24-132"/><path id="highlight-east" class="cls-3" d="M185.35,193l24,24,132-24"/><path id="highlight-south" class="cls-3" d="M185.35,193l-24,24,24,132"/><path id="highlight-west" class="cls-3" d="M185.35,193l-24-24-132,24"/></g><g id="minor-rose"><g id="light-minor"><path id="light-northeast" class="cls-4" d="M185.35,193l48-48-48,23"/><path id="light-southeast" class="cls-4" d="M185.35,193l48,48-23-48"/><path id="light-southwest" class="cls-4" d="M185.35,193l-48,48,48-23"/><path id="light-northwest" class="cls-4" d="M185.35,193l-48-48,23,48"/></g><g id="dark-minor"><path id="dark-northeast" d="M185.35,193l48-48-23,48"/><path id="dark-southeast" d="M185.35,193l48,48-48-23"/><path id="dark-southwest" d="M185.35,193l-48,48,23-48"/><path id="dark-northwest" d="M185.35,193l-48-48,48,23"/></g></g><g id="major-rose"><g id="light-major"><path id="light-north" class="cls-4" d="M185.35,193l-24-24,24-132"/><path id="light-east" class="cls-4" d="M185.35,193l24-24,132,24"/><path id="light-south" class="cls-4" d="M185.35,193l24,24-24,132"/><path id="light-west" class="cls-4" d="M185.35,193l-24,24-132-24"/></g><g id="dark-major"><path id="dark-north" d="M185.35,193l24-24-24-132"/><path id="dark-east" d="M185.35,193l24,24,132-24"/><path id="dark-south" d="M185.35,193l-24,24,24,132"/><path id="dark-west" d="M185.35,193l-24-24-132,24"/></g></g></g><text class="cls-5" transform="translate(0 205.02)">V</text><text class="cls-5" transform="translate(346.04 205.02)">W</text><text class="cls-5" transform="translate(173.35 30.6)">D</text><text class="cls-5" transform="translate(173.35 384.74)">A</text><text class="cls-6" transform="translate(12.74 209.05)">irtual</text><text class="cls-6" transform="translate(366.24 209.05)">orlds</text><text class="cls-7" transform="translate(205.1 14.04)"><tspan class="cls-8">a</tspan><tspan class="cls-9" x="7.86" y="0">t</tspan><tspan x="14.09" y="0">a</tspan></text><text class="cls-7" transform="translate(197.35 366.91)">na<tspan class="cls-10" x="18.16" y="0">l</tspan><tspan class="cls-11" x="23.74" y="0">y</tspan><tspan x="31.08" y="0">t</tspan><tspan class="cls-12" x="37.86" y="0">i</tspan><tspan x="41.98" y="0">cs</tspan></text></g></g></svg>