<svg xmlns="http://www.w3.org/2000/svg" viewBox="0 0 384.56 393.88"><defs><style>.cls-1,.cls-3{fill:none;}.cls-1,.cls-2,.cls-4{stroke:#000;stroke-width:0.25px;}.cls-3{stroke:#fff;}.cls-4{fill:#fff;}.cls-5{font-size:36px;font-family:LithosPro-Regular, Lithos Pro;}</style></defs><title>Asset 3</title><g id="Layer_2" data-name="Layer 2"><g id="Layer_1-2" data-name="Layer 1"><g id="layer1"><g id="ring"><path id="inner-line" class="cls-1" d="M257.35,193a72,72,0,1,1-72-72A72,72,0,0,1,257.35,193Z"/><path id="outer-line" class="cls-1" d="M281.35,193a96,96,0,1,1-96-96A96,96,0,0,1,281.35,193Z"/><path id="ring-fill" class="cls-2" d="M185.35,97a96,96,0,1,0,96,96A96,96,0,0,0,185.35,97Zm0,24a72,72,0,1,1-72,72A72,72,0,0,1,185.35,121Z"/></g><g id="major-rose-edge"><path id="highlight-north" class="cls-3" d="M185.35,193l24-24-24-132"/><path id="highlight-east" class="cls-3" d="M185.35,193l24,24,132-24"/><path id="highlight-south" class="cls-3" d="M185.35,193l-24,24,24,132"/><path id="highlight-west" class="cls-3" d="M185.35,193l-24-24-132,24"/></g><g id="minor-rose"><g id="light-minor"><path id="light-northeast" class="cls-4" d="M185.35,193l48-48-48,23"/><path id="light-southeast" class="cls-4" d="M185.35,193l48,48-23-48"/><path id="light-southwest" class="cls-4" d="M185.35,193l-48,48,48-23"/><path id="light-northwest" class="cls-4" d="M185.35,193l-48-48,23,48"/></g><g id="dark-minor"><path id="dark-northeast" d="M185.35,193l48-48-23,48"/><path id="dark-southeast" d="M185.35,193l48,48-48-23"/><path id="dark-southwest" d="M185.35,193l-48,48,23-48"/><path id="dark-northwest" d="M185.35,193l-48-48,48,23"/></g></g><g id="major-rose"><g id="light-major"><path id="light-north" class="cls-4" d="M185.35,193l-24-24,24-132"/><path id="light-east" class="cls-4" d="M185.35,193l24-24,132,24"/><path id="light-south" class="cls-4" d="M185.35,193l24,24-24,132"/><path id="light-west" class="cls-4" d="M185.35,193l-24,24-132-24"/></g><g id="dark-major"><path id="dark-north" d="M185.35,193l24-24-24-132"/><path id="dark-east" d="M185.35,193l24,24,132-24"/><path id="dark-south" d="M185.35,193l-24,24,24,132"/><path id="dark-west" d="M185.35,193l-24-24-132,24"/></g></g></g><text class="cls-5" transform="translate(0 205.02)">V</text><text class="cls-5" transform="translate(346.04 205.02)">W</text><text class="cls-5" transform="translate(173.35 30.6)">D</text><text class="cls-5" transform="translate(173.35 384.74)">A</text></g></g></svg>